<?xml version="1.0" encoding="UTF-8" standalone="no"?>
<svg viewBox="0 0 616 500" version="1.1" xmlns="http://www.w3.org/2000/svg" xmlns:xlink="http://www.w3.org/1999/xlink" xmlns:sketch="http://www.bohemiancoding.com/sketch/ns">
    <title>twitterlogo</title>
    <description>Created with Sketch (http://www.bohemiancoding.com/sketch)</description>
    <defs></defs>
    <g id="Page-1" stroke="none" stroke-width="1" fill="none" fill-rule="evenodd" sketch:type="MSPage">
        <path d="M70.1464973,304.234749 C77.3565123,305.542032 84.7841706,306.224719 92.3713543,306.224719 C105.729454,306.224719 118.593063,304.108553 130.644931,300.19332 C71.5654126,290.863768 26.3918155,239.735241 26.3918155,178.06082 C26.3918155,177.104297 26.4026814,176.150311 26.4242965,175.198978 C43.9174393,185.127698 64.0695525,190.917627 85.5478382,191.236595 C50.0642895,169.499001 26.3918155,130.379194 26.3918155,85.7329873 C26.3918155,62.5527305 32.7731424,40.8622112 43.8756859,22.3207574 C106.785919,97.5267656 199.081038,147.330217 303.116864,154.095332 C301.210976,145.349689 300.206902,136.267431 300.206902,126.95077 C300.206902,56.8377921 357.071486,0 427.217514,0 C463.864517,0 496.886453,15.5134347 520.068558,40.3284678 C548.832789,35.7612933 575.566841,25.1022629 598.905797,9.71565242 C590.296411,39.0947809 570.703403,63.7836735 544.871892,79.039467 C570.157369,76.6890504 594.046801,69.824599 616,59.5210345 C600.27318,85.247039 579.147672,107.316446 554.197947,124.155527 C554.218032,125.084849 554.228126,126.016631 554.228126,126.95077 C554.228126,129.427844 554.1747,139.030107 554.1747,141.405294 C554.1747,339.451691 393.550711,500 195.410958,500 C123.334355,500 56.2220651,478.755275 0,442.188943 C9.9930742,443.347996 20.157979,443.943816 30.4621108,443.943816 C90.1480908,443.943816 145.162691,423.952695 189.169413,390.303964 C132.826009,390.308995 86.0590992,354.152585 70.1464973,304.234749 Z" id="final-shape" fill="#DDDDDD" sketch:type="MSShapeGroup"></path>
    </g>
</svg>